<?xml version="1.0" standalone="no"?><!DOCTYPE svg PUBLIC "-//W3C//DTD SVG 1.1//EN" "http://www.w3.org/Graphics/SVG/1.1/DTD/svg11.dtd"><svg t="1560256185106" class="icon" style="" viewBox="0 0 1024 1024" version="1.1" xmlns="http://www.w3.org/2000/svg" p-id="2544" xmlns:xlink="http://www.w3.org/1999/xlink" width="200" height="200"><defs><style type="text/css"></style></defs><path d="M224.528365 45.46244A94.363731 94.363731 0 0 0 130.451205 139.539599V883.989605a94.363731 94.363731 0 0 0 94.07716 94.07716h574.94327a94.363731 94.363731 0 0 0 94.07716-94.07716V139.539599a94.363731 94.363731 0 0 0-94.07716-94.077159H224.528365z" fill="#FFDB00" p-id="2545"></path><path d="M130.451205 204.836845V883.989605a94.363731 94.363731 0 0 0 94.07716 94.07716h574.9228a94.363731 94.363731 0 0 0 94.07716-94.07716V204.836845H130.451205z" fill="#FFFFFF" p-id="2546"></path><path d="M211.796426 100.320313h88.141047c32.40299 0 32.464399 45.46244 0 45.46244h-88.141047c-32.382521 0-32.464399-45.46244 0-45.46244z m91.805061 501.949547l9.989046 9.989045 132.641426 132.641427 244.649743-245.263823 29.516811-29.598689c22.864271-22.905209 55.062567 9.006517 32.136889 31.973134l-290.255468 291.012834c-8.023988 8.044457-24.133371 8.105865-32.136888 0.081877l-158.678448-158.678447c-22.925679-22.925679 9.170271-55.103506 32.136889-32.157358zM387.751009 100.320313h88.141047c32.40299 0 32.464399 45.46244 0 45.46244H387.751009c-32.40299 0-32.464399-45.46244 0-45.46244zM130.451205 190.99956h763.09759V139.560069a94.363731 94.363731 0 0 0-94.07716-94.07716H224.528365A94.363731 94.363731 0 0 0 130.451205 139.560069v51.439491z m763.09759 45.482909H130.451205V883.989605a94.363731 94.363731 0 0 0 94.07716 94.07716h574.9228a94.363731 94.363731 0 0 0 94.07716-94.07716V236.482469h0.02047zM224.528365 0h574.9228c76.760085 0 139.539599 62.799984 139.5396 139.539599V883.989605c0 76.760085-62.799984 139.539599-139.5396 139.5396H224.528365c-76.760085 0-139.539599-62.799984-139.539599-139.5396V139.560069c0-76.760085 62.779515-139.560069 139.539599-139.560069z" fill="#595757" p-id="2547"></path></svg>