<?xml version="1.0" standalone="no"?><!DOCTYPE svg PUBLIC "-//W3C//DTD SVG 1.1//EN" "http://www.w3.org/Graphics/SVG/1.1/DTD/svg11.dtd"><svg t="1560256165805" class="icon" style="" viewBox="0 0 1024 1024" version="1.1" xmlns="http://www.w3.org/2000/svg" p-id="1642" xmlns:xlink="http://www.w3.org/1999/xlink" width="200" height="200"><defs><style type="text/css"></style></defs><path d="M742.6 78.2H278.4c-4.9 0-9.6 0.6-14.1 1.8-5.4 1.4-10.5 3.6-15.2 6.4-0.8 0.5-1.5 1-2.3 1.5-1.5 1-3 2.1-4.4 3.3-5.6 4.6-10.3 10.3-13.8 16.7-0.7 1.4-1.4 2.7-2 4.2-0.5 1.1-0.9 2.2-1.4 3.3-0.3 0.9-0.6 1.7-0.9 2.6-1.7 5.3-2.5 11-2.5 16.8v717c0 4.9 0.6 9.6 1.8 14.1 1.4 5.4 3.6 10.5 6.4 15.2 0.5 0.8 1 1.5 1.5 2.3 1 1.5 2.1 3 3.3 4.4 2.3 2.8 4.9 5.4 7.7 7.7 1.4 1.2 2.8 2.2 4.4 3.3 0.8 0.5 1.5 1 2.3 1.5 4.7 2.8 9.8 5 15.2 6.4 4.5 1.2 9.3 1.8 14.1 1.8h287c-38.4-44.4-61.6-102.3-61.6-165.6 0-139.9 113.4-253.4 253.4-253.4 14.3 0 28.3 1.2 41.9 3.5V134.8c0-31.3-25.4-56.6-56.6-56.6z" fill="#0AF2B0" p-id="1643"></path><path d="M668.7 288.4H352.4c-1.5 0-2.8-1.2-2.8-2.8v-29c0-1.5 1.2-2.8 2.8-2.8h316.3c1.5 0 2.8 1.2 2.8 2.8v29c0 1.6-1.3 2.8-2.8 2.8zM668.7 434.7H352.4c-1.5 0-2.8-1.2-2.8-2.8v-29c0-1.5 1.2-2.8 2.8-2.8h316.3c1.5 0 2.8 1.2 2.8 2.8v29c0 1.6-1.3 2.8-2.8 2.8zM531.4 582.1h-179c-1.5 0-2.8-1.2-2.8-2.8v-29c0-1.5 1.2-2.8 2.8-2.8h179.1c1.5 0 2.8 1.2 2.8 2.8v29c-0.1 1.5-1.3 2.8-2.9 2.8zM490 708.1c0-12.9-10.5-23.4-23.4-23.4-12.9 0-23.4 10.5-23.4 23.4 0 12.9 10.5 23.4 23.4 23.4 12.9 0 23.4-10.5 23.4-23.4z m0 0M396.3 708.1c0-12.9-10.5-23.4-23.4-23.4-12.9 0-23.4 10.5-23.4 23.4 0 8.4 4.4 16 11.7 20.2 7.2 4.2 16.2 4.2 23.4 0 7.3-4.1 11.7-11.8 11.7-20.2z m0 0" fill="#FFFFFF" p-id="1644"></path><path d="M920 744.3c0 11.3 9.2 20.5 20.5 20.5s20.5-9.2 20.5-20.5-9.2-20.5-20.5-20.5c-11.3-0.1-20.5 9.1-20.5 20.5z m0 0M644.2 830.8c-9.5 0-19 4-25.6 10.7-6.6 6.6-10.7 16.1-10.7 25.6s4 19 10.7 25.6c6.6 6.6 16.1 10.7 25.6 10.7s19-4 25.6-10.7c6.6-6.6 10.7-16.1 10.7-25.6s-4-19-10.7-25.6c-6.9-6.9-16.1-10.7-25.6-10.7z m0 0M875.3 621.4c0 8 6.5 14.6 14.6 14.6 8 0 14.6-6.5 14.6-14.6 0-8-6.5-14.6-14.6-14.6-8 0-14.6 6.5-14.6 14.6z m0 0M644.2 579.4c-11 0-22 4.7-29.6 12.3-7.7 7.7-12.3 18.6-12.3 29.6s4.7 22 12.3 29.6c7.7 7.7 18.6 12.3 29.6 12.3s22-4.7 29.6-12.3c7.7-7.7 12.3-18.6 12.3-29.6s-4.7-22-12.3-29.6c-8-7.9-18.6-12.3-29.6-12.3z m0 0M631.4 744.3c0-10-4.2-20-11.2-27-7-7-17-11.2-27-11.2s-20 4.2-27 11.2c-7 7-11.2 17-11.2 27s4.2 20 11.2 27c7 7 17 11.2 27 11.2s20-4.2 27-11.2c7-7 11.2-17 11.2-27z m3.8 0M767 885.6c-8.5 0-16.9 3.5-22.8 9.3-5.8 5.8-9.3 14.3-9.3 22.8s3.5 16.9 9.3 22.8c5.8 5.8 14.3 9.3 22.8 9.3s16.9-3.5 22.8-9.3c5.8-5.8 9.3-14.3 9.3-22.8s-3.5-16.9-9.3-22.8c-6.1-5.8-14.3-9.3-22.8-9.3z m0-4.5M889.9 844.8c-5.9 0-11.5 2.3-15.7 6.6-4.2 4.2-6.6 9.9-6.6 15.7 0 5.9 2.3 11.5 6.6 15.7 4.2 4.2 9.9 6.6 15.7 6.6 5.9 0 11.5-2.3 15.7-6.6 4.2-4.2 6.6-9.9 6.6-15.7 0-5.9-2.3-11.5-6.6-15.7-4.2-4.2-10.1-6.6-15.7-6.6z m0 0M767 528.5c-11 0-22 4.7-29.6 12.3-7.7 7.7-12.3 18.6-12.3 29.6s4.7 22 12.3 29.6c7.7 7.7 18.6 12.3 29.6 12.3s22-4.7 29.6-12.3c7.7-7.7 12.3-18.6 12.3-29.6s-4.7-22-12.3-29.6c-7.9-7.7-18.6-12.3-29.6-12.3z m0 0" fill="#64FFCF" p-id="1645"></path><path d="M76.7 208.5c8-8.2 17.7-15.2 29.2-21.2s21.2-9.6 29.3-10.8c3.8-0.5 8.2-0.6 13-0.3 4.8 0.2 9.7 1.1 14.4 2.6 4.8 1.5 9.3 3.9 13.7 7 4.4 3.2 8.2 7.4 11.5 12.6 2.5 4.2 5.6 9.8 9.2 16.7 3.6 6.9 6.7 12.9 9.3 17.8l-123.4 59c-1.6-2.8-3.2-5.9-4.9-9.4-1.5-3.1-3.2-6.6-5.3-10.6-2.1-4-4.3-8.7-6.9-13.9-2.2-5.2-3.4-10.1-3.5-14.9-0.1-4.8 0.6-9.3 2.1-13.6 1.5-4.2 3.3-8.1 5.5-11.8 2.1-3.7 4.4-6.8 6.8-9.2z m295.8 372.2c2.9 6.2 5 11.5 6.1 16.1 1.1 4.6 1.8 9.5 2.2 14.8 0.6 3.5 0.8 9.6 0.7 18.3-0.2 8.7-0.5 18.2-1 28.5-0.5 10.2-1.1 20.1-1.7 29.6-0.6 9.5-1.4 16.6-2.3 21.4-1.7 8.9-4.6 14.6-8.8 17.2-4.2 2.5-10.5 1.8-18.9-2.3-4-2.1-9.9-5.9-17.7-11.2-7.8-5.3-16-11.2-24.5-17.7s-16.6-12.9-24.2-19.2c-7.6-6.3-13.3-11.5-17.1-15.4-3.9-3.6-7.3-7.7-10.4-12.5-3.1-4.7-5.7-9.2-7.9-13.2-1-1.4-3.6-6.8-8.1-16-4.4-9.2-10-21-16.6-35.2-6.7-14.2-14.3-30-22.8-47.3l-25.1-53.3-67.8-141.9 123.6-59.5 116.4 243.5c6.9 14.5 12.7 26.7 17.3 36.5 4.4 9.9 7.3 16.1 8.6 18.8z m0 0" fill="#69FFCD" p-id="1646"></path></svg>